<svg xmlns="http://www.w3.org/2000/svg" viewBox="0 0 23 23"><path d="M1 1h7v7h-7zM12 1h1v3h-1v4h-1v-4h-1v-1h-1v-1h3zM15 1h7v7h-7zM2 2v5h5v-5zM16 2v5h5v-5zM3 3h3v3h-3zM17 3h3v3h-3zM9 5h1v1h-1zM13 5h1v4h-1v1h-3v-2h1v1h1v-1h1zM9 7h1v1h-1zM1 9h1v1h-1zM3 9h1v1h-1zM5 9h1v1h1v1h-1v1h-1v2h-1v-2h-1v-1h1v-1h1zM7 9h1v1h-1zM17 9h1v1h-1zM20 9h1v1h1v1h-4v-1h2zM2 10h1v1h-1zM15 10h1v1h-1zM1 11h1v1h-1zM7 11h1v1h-1zM13 11h1v1h-1zM17 11h1v1h-1zM2 12h1v1h-1zM6 12h1v1h2v1h-3zM9 12h1v1h-1zM15 12h1v2h-1zM19 12h1v1h-1zM21 12h1v1h-1zM1 13h1v1h-1zM13 13h1v1h-1zM17 13h2v1h1v-1h1v1h1v1h-2v1h-2v-2h-1zM9 14h4v2h1v-2h1v1h1v-1h1v2h1v1h-1v2h-2v-1h-1v-1h-1v1h-1v3h-2v-1h1v-2h-2v-1h1v-2h-1zM1 15h7v7h-7zM11 15v1h1v-1zM2 16v5h5v-5zM15 16v1h1v-1zM20 16h2v2h-1v-1h-1zM3 17h3v3h-3zM19 17h1v1h1v1h-1v1h-3v-1h1v-1h1zM9 19h1v1h-1zM13 19h1v1h-1zM21 19h1v1h-1zM15 20h2v1h-1v1h-1zM9 21h1v1h-1zM13 21h1v1h-1zM17 21h3v1h-3zM21 21h1v1h-1z"/></svg>