<svg xmlns="http://www.w3.org/2000/svg" viewBox="0 0 23 23"><path d="M1 1h7v7h-7zM9 1h1v1h-1zM13 1h1v1h-1zM15 1h7v7h-7zM2 2v5h5v-5zM11 2h2v1h1v1h-1v1h-1v-2h-1zM16 2v5h5v-5zM3 3h3v3h-3zM10 3h1v1h-1zM17 3h3v3h-3zM9 4h1v2h1v1h-1v3h2v-2h1v-1h1v2h-1v1h1v1h-1v1h-3v-1h-1v-1h-2v-1h2zM11 5h1v1h-1zM13 5h1v1h-1zM12 6h1v1h-1zM11 7h1v1h-1zM1 9h1v1h-1zM5 9h1v1h-1zM14 9h5v1h-1v3h1v1h-1v1h2v-3h-1v-2h1v1h1v1h1v2h-1v4h1v1h-2v1h-1v-2h1v-2h-3v-3h-1v-1h1v-2h-3zM21 9h1v1h-1zM4 10h1v1h-1zM5 11h1v1h-1zM7 11h2v1h-2zM14 11h1v3h-1v3h-1v1h1v1h-1v1h-1v-3h-1v1h-2v-1h1v-1h1v-1h1v1h1v-3h1zM1 12h1v1h4v1h-5zM6 12h1v1h-1zM9 12h1v1h-1zM7 13h1v1h-1zM10 13h2v1h-1v1h-1v1h-1v-2h1zM1 15h7v7h-7zM15 15h1v1h-1zM2 16v5h5v-5zM16 16h1v1h-1zM3 17h3v3h-3zM14 17h2v1h-2zM17 17h1v3h-1zM10 19h1v1h1v1h-1v1h-2v-1h1zM15 19h1v3h-3v-1h1v-1h1zM18 21h1v1h-1zM21 21h1v1h-1z"/></svg>